M48
;DRILL file {KiCad 5.0.0} date Sun Nov 11 14:42:00 2018
;FORMAT={-:-/ absolute / inch / decimal}
FMAT,2
INCH,TZ
T1C0.0157
T2C0.0394
%
G90
G05
M72
T1
X7.28Y-3.2
X7.28Y-3.26
X7.4Y-3.54
X7.42Y-3.38
X7.44Y-3.18
X7.52Y-3.49
X7.53Y-3.55
X7.71Y-3.55
X7.74Y-3.49
X7.76Y-3.63
X7.84Y-3.49
T2
X7.95Y-3.2
X7.95Y-3.3
X7.95Y-3.4
X7.95Y-3.5
X7.95Y-3.6
X7.2Y-3.2
X7.2Y-3.3
X7.2Y-3.4
X7.2Y-3.5
X7.2Y-3.6
X7.7Y-3.19
X7.7Y-3.29
X7.7Y-3.39
X7.8Y-3.19
X7.8Y-3.29
X7.8Y-3.39
T0
M30
