G04 #@! TF.GenerationSoftware,KiCad,Pcbnew,5.0.0*
G04 #@! TF.CreationDate,2018-11-11T14:42:04-05:00*
G04 #@! TF.ProjectId,Barometer-Pi-Module,4261726F6D657465722D50692D4D6F64,rev?*
G04 #@! TF.SameCoordinates,Original*
G04 #@! TF.FileFunction,Paste,Top*
G04 #@! TF.FilePolarity,Positive*
%FSLAX46Y46*%
G04 Gerber Fmt 4.6, Leading zero omitted, Abs format (unit mm)*
G04 Created by KiCad (PCBNEW 5.0.0) date Sun Nov 11 14:42:04 2018*
%MOMM*%
%LPD*%
G01*
G04 APERTURE LIST*
%ADD10R,1.310000X0.530000*%
%ADD11C,0.100000*%
%ADD12C,0.975000*%
G04 APERTURE END LIST*
D10*
G04 #@! TO.C,U1*
X195067296Y-92388545D03*
X192667296Y-92388545D03*
X195067296Y-91138545D03*
X195067296Y-89888545D03*
X195067296Y-88638545D03*
X192667296Y-88638545D03*
X192667296Y-89888545D03*
X192667296Y-91138545D03*
G04 #@! TD*
D11*
G04 #@! TO.C,C1*
G36*
X198600142Y-90583719D02*
X198623803Y-90587229D01*
X198647007Y-90593041D01*
X198669529Y-90601099D01*
X198691153Y-90611327D01*
X198711670Y-90623624D01*
X198730883Y-90637874D01*
X198748607Y-90653938D01*
X198764671Y-90671662D01*
X198778921Y-90690875D01*
X198791218Y-90711392D01*
X198801446Y-90733016D01*
X198809504Y-90755538D01*
X198815316Y-90778742D01*
X198818826Y-90802403D01*
X198820000Y-90826295D01*
X198820000Y-91313795D01*
X198818826Y-91337687D01*
X198815316Y-91361348D01*
X198809504Y-91384552D01*
X198801446Y-91407074D01*
X198791218Y-91428698D01*
X198778921Y-91449215D01*
X198764671Y-91468428D01*
X198748607Y-91486152D01*
X198730883Y-91502216D01*
X198711670Y-91516466D01*
X198691153Y-91528763D01*
X198669529Y-91538991D01*
X198647007Y-91547049D01*
X198623803Y-91552861D01*
X198600142Y-91556371D01*
X198576250Y-91557545D01*
X197663750Y-91557545D01*
X197639858Y-91556371D01*
X197616197Y-91552861D01*
X197592993Y-91547049D01*
X197570471Y-91538991D01*
X197548847Y-91528763D01*
X197528330Y-91516466D01*
X197509117Y-91502216D01*
X197491393Y-91486152D01*
X197475329Y-91468428D01*
X197461079Y-91449215D01*
X197448782Y-91428698D01*
X197438554Y-91407074D01*
X197430496Y-91384552D01*
X197424684Y-91361348D01*
X197421174Y-91337687D01*
X197420000Y-91313795D01*
X197420000Y-90826295D01*
X197421174Y-90802403D01*
X197424684Y-90778742D01*
X197430496Y-90755538D01*
X197438554Y-90733016D01*
X197448782Y-90711392D01*
X197461079Y-90690875D01*
X197475329Y-90671662D01*
X197491393Y-90653938D01*
X197509117Y-90637874D01*
X197528330Y-90623624D01*
X197548847Y-90611327D01*
X197570471Y-90601099D01*
X197592993Y-90593041D01*
X197616197Y-90587229D01*
X197639858Y-90583719D01*
X197663750Y-90582545D01*
X198576250Y-90582545D01*
X198600142Y-90583719D01*
X198600142Y-90583719D01*
G37*
D12*
X198120000Y-91070045D03*
D11*
G36*
X198600142Y-88708719D02*
X198623803Y-88712229D01*
X198647007Y-88718041D01*
X198669529Y-88726099D01*
X198691153Y-88736327D01*
X198711670Y-88748624D01*
X198730883Y-88762874D01*
X198748607Y-88778938D01*
X198764671Y-88796662D01*
X198778921Y-88815875D01*
X198791218Y-88836392D01*
X198801446Y-88858016D01*
X198809504Y-88880538D01*
X198815316Y-88903742D01*
X198818826Y-88927403D01*
X198820000Y-88951295D01*
X198820000Y-89438795D01*
X198818826Y-89462687D01*
X198815316Y-89486348D01*
X198809504Y-89509552D01*
X198801446Y-89532074D01*
X198791218Y-89553698D01*
X198778921Y-89574215D01*
X198764671Y-89593428D01*
X198748607Y-89611152D01*
X198730883Y-89627216D01*
X198711670Y-89641466D01*
X198691153Y-89653763D01*
X198669529Y-89663991D01*
X198647007Y-89672049D01*
X198623803Y-89677861D01*
X198600142Y-89681371D01*
X198576250Y-89682545D01*
X197663750Y-89682545D01*
X197639858Y-89681371D01*
X197616197Y-89677861D01*
X197592993Y-89672049D01*
X197570471Y-89663991D01*
X197548847Y-89653763D01*
X197528330Y-89641466D01*
X197509117Y-89627216D01*
X197491393Y-89611152D01*
X197475329Y-89593428D01*
X197461079Y-89574215D01*
X197448782Y-89553698D01*
X197438554Y-89532074D01*
X197430496Y-89509552D01*
X197424684Y-89486348D01*
X197421174Y-89462687D01*
X197420000Y-89438795D01*
X197420000Y-88951295D01*
X197421174Y-88927403D01*
X197424684Y-88903742D01*
X197430496Y-88880538D01*
X197438554Y-88858016D01*
X197448782Y-88836392D01*
X197461079Y-88815875D01*
X197475329Y-88796662D01*
X197491393Y-88778938D01*
X197509117Y-88762874D01*
X197528330Y-88748624D01*
X197548847Y-88736327D01*
X197570471Y-88726099D01*
X197592993Y-88718041D01*
X197616197Y-88712229D01*
X197639858Y-88708719D01*
X197663750Y-88707545D01*
X198576250Y-88707545D01*
X198600142Y-88708719D01*
X198600142Y-88708719D01*
G37*
D12*
X198120000Y-89195045D03*
G04 #@! TD*
D11*
G04 #@! TO.C,R2*
G36*
X189710142Y-88746174D02*
X189733803Y-88749684D01*
X189757007Y-88755496D01*
X189779529Y-88763554D01*
X189801153Y-88773782D01*
X189821670Y-88786079D01*
X189840883Y-88800329D01*
X189858607Y-88816393D01*
X189874671Y-88834117D01*
X189888921Y-88853330D01*
X189901218Y-88873847D01*
X189911446Y-88895471D01*
X189919504Y-88917993D01*
X189925316Y-88941197D01*
X189928826Y-88964858D01*
X189930000Y-88988750D01*
X189930000Y-89476250D01*
X189928826Y-89500142D01*
X189925316Y-89523803D01*
X189919504Y-89547007D01*
X189911446Y-89569529D01*
X189901218Y-89591153D01*
X189888921Y-89611670D01*
X189874671Y-89630883D01*
X189858607Y-89648607D01*
X189840883Y-89664671D01*
X189821670Y-89678921D01*
X189801153Y-89691218D01*
X189779529Y-89701446D01*
X189757007Y-89709504D01*
X189733803Y-89715316D01*
X189710142Y-89718826D01*
X189686250Y-89720000D01*
X188773750Y-89720000D01*
X188749858Y-89718826D01*
X188726197Y-89715316D01*
X188702993Y-89709504D01*
X188680471Y-89701446D01*
X188658847Y-89691218D01*
X188638330Y-89678921D01*
X188619117Y-89664671D01*
X188601393Y-89648607D01*
X188585329Y-89630883D01*
X188571079Y-89611670D01*
X188558782Y-89591153D01*
X188548554Y-89569529D01*
X188540496Y-89547007D01*
X188534684Y-89523803D01*
X188531174Y-89500142D01*
X188530000Y-89476250D01*
X188530000Y-88988750D01*
X188531174Y-88964858D01*
X188534684Y-88941197D01*
X188540496Y-88917993D01*
X188548554Y-88895471D01*
X188558782Y-88873847D01*
X188571079Y-88853330D01*
X188585329Y-88834117D01*
X188601393Y-88816393D01*
X188619117Y-88800329D01*
X188638330Y-88786079D01*
X188658847Y-88773782D01*
X188680471Y-88763554D01*
X188702993Y-88755496D01*
X188726197Y-88749684D01*
X188749858Y-88746174D01*
X188773750Y-88745000D01*
X189686250Y-88745000D01*
X189710142Y-88746174D01*
X189710142Y-88746174D01*
G37*
D12*
X189230000Y-89232500D03*
D11*
G36*
X189710142Y-90621174D02*
X189733803Y-90624684D01*
X189757007Y-90630496D01*
X189779529Y-90638554D01*
X189801153Y-90648782D01*
X189821670Y-90661079D01*
X189840883Y-90675329D01*
X189858607Y-90691393D01*
X189874671Y-90709117D01*
X189888921Y-90728330D01*
X189901218Y-90748847D01*
X189911446Y-90770471D01*
X189919504Y-90792993D01*
X189925316Y-90816197D01*
X189928826Y-90839858D01*
X189930000Y-90863750D01*
X189930000Y-91351250D01*
X189928826Y-91375142D01*
X189925316Y-91398803D01*
X189919504Y-91422007D01*
X189911446Y-91444529D01*
X189901218Y-91466153D01*
X189888921Y-91486670D01*
X189874671Y-91505883D01*
X189858607Y-91523607D01*
X189840883Y-91539671D01*
X189821670Y-91553921D01*
X189801153Y-91566218D01*
X189779529Y-91576446D01*
X189757007Y-91584504D01*
X189733803Y-91590316D01*
X189710142Y-91593826D01*
X189686250Y-91595000D01*
X188773750Y-91595000D01*
X188749858Y-91593826D01*
X188726197Y-91590316D01*
X188702993Y-91584504D01*
X188680471Y-91576446D01*
X188658847Y-91566218D01*
X188638330Y-91553921D01*
X188619117Y-91539671D01*
X188601393Y-91523607D01*
X188585329Y-91505883D01*
X188571079Y-91486670D01*
X188558782Y-91466153D01*
X188548554Y-91444529D01*
X188540496Y-91422007D01*
X188534684Y-91398803D01*
X188531174Y-91375142D01*
X188530000Y-91351250D01*
X188530000Y-90863750D01*
X188531174Y-90839858D01*
X188534684Y-90816197D01*
X188540496Y-90792993D01*
X188548554Y-90770471D01*
X188558782Y-90748847D01*
X188571079Y-90728330D01*
X188585329Y-90709117D01*
X188601393Y-90691393D01*
X188619117Y-90675329D01*
X188638330Y-90661079D01*
X188658847Y-90648782D01*
X188680471Y-90638554D01*
X188702993Y-90630496D01*
X188726197Y-90624684D01*
X188749858Y-90621174D01*
X188773750Y-90620000D01*
X189686250Y-90620000D01*
X189710142Y-90621174D01*
X189710142Y-90621174D01*
G37*
D12*
X189230000Y-91107500D03*
G04 #@! TD*
D11*
G04 #@! TO.C,R1*
G36*
X187170142Y-90621174D02*
X187193803Y-90624684D01*
X187217007Y-90630496D01*
X187239529Y-90638554D01*
X187261153Y-90648782D01*
X187281670Y-90661079D01*
X187300883Y-90675329D01*
X187318607Y-90691393D01*
X187334671Y-90709117D01*
X187348921Y-90728330D01*
X187361218Y-90748847D01*
X187371446Y-90770471D01*
X187379504Y-90792993D01*
X187385316Y-90816197D01*
X187388826Y-90839858D01*
X187390000Y-90863750D01*
X187390000Y-91351250D01*
X187388826Y-91375142D01*
X187385316Y-91398803D01*
X187379504Y-91422007D01*
X187371446Y-91444529D01*
X187361218Y-91466153D01*
X187348921Y-91486670D01*
X187334671Y-91505883D01*
X187318607Y-91523607D01*
X187300883Y-91539671D01*
X187281670Y-91553921D01*
X187261153Y-91566218D01*
X187239529Y-91576446D01*
X187217007Y-91584504D01*
X187193803Y-91590316D01*
X187170142Y-91593826D01*
X187146250Y-91595000D01*
X186233750Y-91595000D01*
X186209858Y-91593826D01*
X186186197Y-91590316D01*
X186162993Y-91584504D01*
X186140471Y-91576446D01*
X186118847Y-91566218D01*
X186098330Y-91553921D01*
X186079117Y-91539671D01*
X186061393Y-91523607D01*
X186045329Y-91505883D01*
X186031079Y-91486670D01*
X186018782Y-91466153D01*
X186008554Y-91444529D01*
X186000496Y-91422007D01*
X185994684Y-91398803D01*
X185991174Y-91375142D01*
X185990000Y-91351250D01*
X185990000Y-90863750D01*
X185991174Y-90839858D01*
X185994684Y-90816197D01*
X186000496Y-90792993D01*
X186008554Y-90770471D01*
X186018782Y-90748847D01*
X186031079Y-90728330D01*
X186045329Y-90709117D01*
X186061393Y-90691393D01*
X186079117Y-90675329D01*
X186098330Y-90661079D01*
X186118847Y-90648782D01*
X186140471Y-90638554D01*
X186162993Y-90630496D01*
X186186197Y-90624684D01*
X186209858Y-90621174D01*
X186233750Y-90620000D01*
X187146250Y-90620000D01*
X187170142Y-90621174D01*
X187170142Y-90621174D01*
G37*
D12*
X186690000Y-91107500D03*
D11*
G36*
X187170142Y-88746174D02*
X187193803Y-88749684D01*
X187217007Y-88755496D01*
X187239529Y-88763554D01*
X187261153Y-88773782D01*
X187281670Y-88786079D01*
X187300883Y-88800329D01*
X187318607Y-88816393D01*
X187334671Y-88834117D01*
X187348921Y-88853330D01*
X187361218Y-88873847D01*
X187371446Y-88895471D01*
X187379504Y-88917993D01*
X187385316Y-88941197D01*
X187388826Y-88964858D01*
X187390000Y-88988750D01*
X187390000Y-89476250D01*
X187388826Y-89500142D01*
X187385316Y-89523803D01*
X187379504Y-89547007D01*
X187371446Y-89569529D01*
X187361218Y-89591153D01*
X187348921Y-89611670D01*
X187334671Y-89630883D01*
X187318607Y-89648607D01*
X187300883Y-89664671D01*
X187281670Y-89678921D01*
X187261153Y-89691218D01*
X187239529Y-89701446D01*
X187217007Y-89709504D01*
X187193803Y-89715316D01*
X187170142Y-89718826D01*
X187146250Y-89720000D01*
X186233750Y-89720000D01*
X186209858Y-89718826D01*
X186186197Y-89715316D01*
X186162993Y-89709504D01*
X186140471Y-89701446D01*
X186118847Y-89691218D01*
X186098330Y-89678921D01*
X186079117Y-89664671D01*
X186061393Y-89648607D01*
X186045329Y-89630883D01*
X186031079Y-89611670D01*
X186018782Y-89591153D01*
X186008554Y-89569529D01*
X186000496Y-89547007D01*
X185994684Y-89523803D01*
X185991174Y-89500142D01*
X185990000Y-89476250D01*
X185990000Y-88988750D01*
X185991174Y-88964858D01*
X185994684Y-88941197D01*
X186000496Y-88917993D01*
X186008554Y-88895471D01*
X186018782Y-88873847D01*
X186031079Y-88853330D01*
X186045329Y-88834117D01*
X186061393Y-88816393D01*
X186079117Y-88800329D01*
X186098330Y-88786079D01*
X186118847Y-88773782D01*
X186140471Y-88763554D01*
X186162993Y-88755496D01*
X186186197Y-88749684D01*
X186209858Y-88746174D01*
X186233750Y-88745000D01*
X187146250Y-88745000D01*
X187170142Y-88746174D01*
X187170142Y-88746174D01*
G37*
D12*
X186690000Y-89232500D03*
G04 #@! TD*
M02*
