G04 #@! TF.GenerationSoftware,KiCad,Pcbnew,5.0.0*
G04 #@! TF.CreationDate,2018-11-11T14:42:04-05:00*
G04 #@! TF.ProjectId,Barometer-Pi-Module,4261726F6D657465722D50692D4D6F64,rev?*
G04 #@! TF.SameCoordinates,Original*
G04 #@! TF.FileFunction,Legend,Bot*
G04 #@! TF.FilePolarity,Positive*
%FSLAX46Y46*%
G04 Gerber Fmt 4.6, Leading zero omitted, Abs format (unit mm)*
G04 Created by KiCad (PCBNEW 5.0.0) date Sun Nov 11 14:42:04 2018*
%MOMM*%
%LPD*%
G01*
G04 APERTURE LIST*
%ADD10C,0.200000*%
%ADD11C,0.150000*%
%ADD12C,0.120000*%
G04 APERTURE END LIST*
D10*
X199462200Y-93633857D02*
X199862200Y-93062428D01*
X200147914Y-93633857D02*
X200147914Y-92433857D01*
X199690771Y-92433857D01*
X199576485Y-92491000D01*
X199519342Y-92548142D01*
X199462200Y-92662428D01*
X199462200Y-92833857D01*
X199519342Y-92948142D01*
X199576485Y-93005285D01*
X199690771Y-93062428D01*
X200147914Y-93062428D01*
X198490771Y-93576714D02*
X198605057Y-93633857D01*
X198833628Y-93633857D01*
X198947914Y-93576714D01*
X199005057Y-93462428D01*
X199005057Y-93005285D01*
X198947914Y-92891000D01*
X198833628Y-92833857D01*
X198605057Y-92833857D01*
X198490771Y-92891000D01*
X198433628Y-93005285D01*
X198433628Y-93119571D01*
X199005057Y-93233857D01*
X198033628Y-92833857D02*
X197747914Y-93633857D01*
X197462200Y-92833857D01*
X196147914Y-93291000D02*
X195576485Y-93291000D01*
X196262200Y-93633857D02*
X195862200Y-92433857D01*
X195462200Y-93633857D01*
X194205057Y-92548142D02*
X194147914Y-92491000D01*
X194033628Y-92433857D01*
X193747914Y-92433857D01*
X193633628Y-92491000D01*
X193576485Y-92548142D01*
X193519342Y-92662428D01*
X193519342Y-92776714D01*
X193576485Y-92948142D01*
X194262200Y-93633857D01*
X193519342Y-93633857D01*
X192776485Y-92433857D02*
X192662200Y-92433857D01*
X192547914Y-92491000D01*
X192490771Y-92548142D01*
X192433628Y-92662428D01*
X192376485Y-92891000D01*
X192376485Y-93176714D01*
X192433628Y-93405285D01*
X192490771Y-93519571D01*
X192547914Y-93576714D01*
X192662200Y-93633857D01*
X192776485Y-93633857D01*
X192890771Y-93576714D01*
X192947914Y-93519571D01*
X193005057Y-93405285D01*
X193062200Y-93176714D01*
X193062200Y-92891000D01*
X193005057Y-92662428D01*
X192947914Y-92548142D01*
X192890771Y-92491000D01*
X192776485Y-92433857D01*
X191233628Y-93633857D02*
X191919342Y-93633857D01*
X191576485Y-93633857D02*
X191576485Y-92433857D01*
X191690771Y-92605285D01*
X191805057Y-92719571D01*
X191919342Y-92776714D01*
X190547914Y-92948142D02*
X190662200Y-92891000D01*
X190719342Y-92833857D01*
X190776485Y-92719571D01*
X190776485Y-92662428D01*
X190719342Y-92548142D01*
X190662200Y-92491000D01*
X190547914Y-92433857D01*
X190319342Y-92433857D01*
X190205057Y-92491000D01*
X190147914Y-92548142D01*
X190090771Y-92662428D01*
X190090771Y-92719571D01*
X190147914Y-92833857D01*
X190205057Y-92891000D01*
X190319342Y-92948142D01*
X190547914Y-92948142D01*
X190662200Y-93005285D01*
X190719342Y-93062428D01*
X190776485Y-93176714D01*
X190776485Y-93405285D01*
X190719342Y-93519571D01*
X190662200Y-93576714D01*
X190547914Y-93633857D01*
X190319342Y-93633857D01*
X190205057Y-93576714D01*
X190147914Y-93519571D01*
X190090771Y-93405285D01*
X190090771Y-93176714D01*
X190147914Y-93062428D01*
X190205057Y-93005285D01*
X190319342Y-92948142D01*
X188947914Y-93633857D02*
X189633628Y-93633857D01*
X189290771Y-93633857D02*
X189290771Y-92433857D01*
X189405057Y-92605285D01*
X189519342Y-92719571D01*
X189633628Y-92776714D01*
X187805057Y-93633857D02*
X188490771Y-93633857D01*
X188147914Y-93633857D02*
X188147914Y-92433857D01*
X188262200Y-92605285D01*
X188376485Y-92719571D01*
X188490771Y-92776714D01*
X186662200Y-93633857D02*
X187347914Y-93633857D01*
X187005057Y-93633857D02*
X187005057Y-92433857D01*
X187119342Y-92605285D01*
X187233628Y-92719571D01*
X187347914Y-92776714D01*
X185919342Y-92433857D02*
X185805057Y-92433857D01*
X185690771Y-92491000D01*
X185633628Y-92548142D01*
X185576485Y-92662428D01*
X185519342Y-92891000D01*
X185519342Y-93176714D01*
X185576485Y-93405285D01*
X185633628Y-93519571D01*
X185690771Y-93576714D01*
X185805057Y-93633857D01*
X185919342Y-93633857D01*
X186033628Y-93576714D01*
X186090771Y-93519571D01*
X186147914Y-93405285D01*
X186205057Y-93176714D01*
X186205057Y-92891000D01*
X186147914Y-92662428D01*
X186090771Y-92548142D01*
X186033628Y-92491000D01*
X185919342Y-92433857D01*
D11*
X199063714Y-88511571D02*
X198920857Y-88559190D01*
X198873238Y-88606809D01*
X198825619Y-88702047D01*
X198825619Y-88844904D01*
X198873238Y-88940142D01*
X198920857Y-88987761D01*
X199016095Y-89035380D01*
X199397047Y-89035380D01*
X199397047Y-88035380D01*
X199063714Y-88035380D01*
X198968476Y-88083000D01*
X198920857Y-88130619D01*
X198873238Y-88225857D01*
X198873238Y-88321095D01*
X198920857Y-88416333D01*
X198968476Y-88463952D01*
X199063714Y-88511571D01*
X199397047Y-88511571D01*
X197825619Y-89035380D02*
X198158952Y-88559190D01*
X198397047Y-89035380D02*
X198397047Y-88035380D01*
X198016095Y-88035380D01*
X197920857Y-88083000D01*
X197873238Y-88130619D01*
X197825619Y-88225857D01*
X197825619Y-88368714D01*
X197873238Y-88463952D01*
X197920857Y-88511571D01*
X198016095Y-88559190D01*
X198397047Y-88559190D01*
X197397047Y-89035380D02*
X197397047Y-88035380D01*
X196920857Y-89035380D02*
X196920857Y-88035380D01*
X196682761Y-88035380D01*
X196539904Y-88083000D01*
X196444666Y-88178238D01*
X196397047Y-88273476D01*
X196349428Y-88463952D01*
X196349428Y-88606809D01*
X196397047Y-88797285D01*
X196444666Y-88892523D01*
X196539904Y-88987761D01*
X196682761Y-89035380D01*
X196920857Y-89035380D01*
X195397047Y-88083000D02*
X195492285Y-88035380D01*
X195635142Y-88035380D01*
X195778000Y-88083000D01*
X195873238Y-88178238D01*
X195920857Y-88273476D01*
X195968476Y-88463952D01*
X195968476Y-88606809D01*
X195920857Y-88797285D01*
X195873238Y-88892523D01*
X195778000Y-88987761D01*
X195635142Y-89035380D01*
X195539904Y-89035380D01*
X195397047Y-88987761D01*
X195349428Y-88940142D01*
X195349428Y-88606809D01*
X195539904Y-88606809D01*
X194920857Y-88511571D02*
X194587523Y-88511571D01*
X194444666Y-89035380D02*
X194920857Y-89035380D01*
X194920857Y-88035380D01*
X194444666Y-88035380D01*
X192968476Y-88035380D02*
X192968476Y-88749666D01*
X193016095Y-88892523D01*
X193111333Y-88987761D01*
X193254190Y-89035380D01*
X193349428Y-89035380D01*
X192492285Y-89035380D02*
X192492285Y-88035380D01*
X192111333Y-88035380D01*
X192016095Y-88083000D01*
X191968476Y-88130619D01*
X191920857Y-88225857D01*
X191920857Y-88368714D01*
X191968476Y-88463952D01*
X192016095Y-88511571D01*
X192111333Y-88559190D01*
X192492285Y-88559190D01*
X191587523Y-88035380D02*
X190968476Y-88035380D01*
X191301809Y-88416333D01*
X191158952Y-88416333D01*
X191063714Y-88463952D01*
X191016095Y-88511571D01*
X190968476Y-88606809D01*
X190968476Y-88844904D01*
X191016095Y-88940142D01*
X191063714Y-88987761D01*
X191158952Y-89035380D01*
X191444666Y-89035380D01*
X191539904Y-88987761D01*
X191587523Y-88940142D01*
X190539904Y-88654428D02*
X189778000Y-88654428D01*
X188873238Y-88035380D02*
X189063714Y-88035380D01*
X189158952Y-88083000D01*
X189206571Y-88130619D01*
X189301809Y-88273476D01*
X189349428Y-88463952D01*
X189349428Y-88844904D01*
X189301809Y-88940142D01*
X189254190Y-88987761D01*
X189158952Y-89035380D01*
X188968476Y-89035380D01*
X188873238Y-88987761D01*
X188825619Y-88940142D01*
X188778000Y-88844904D01*
X188778000Y-88606809D01*
X188825619Y-88511571D01*
X188873238Y-88463952D01*
X188968476Y-88416333D01*
X189158952Y-88416333D01*
X189254190Y-88463952D01*
X189301809Y-88511571D01*
X189349428Y-88606809D01*
X187635142Y-88749666D02*
X187158952Y-88749666D01*
X187730380Y-89035380D02*
X187397047Y-88035380D01*
X187063714Y-89035380D01*
X186730380Y-89035380D02*
X186730380Y-88035380D01*
X186158952Y-89035380D01*
X186158952Y-88035380D01*
X185682761Y-89035380D02*
X185682761Y-88035380D01*
X185444666Y-88035380D01*
X185301809Y-88083000D01*
X185206571Y-88178238D01*
X185158952Y-88273476D01*
X185111333Y-88463952D01*
X185111333Y-88606809D01*
X185158952Y-88797285D01*
X185206571Y-88892523D01*
X185301809Y-88987761D01*
X185444666Y-89035380D01*
X185682761Y-89035380D01*
X200111333Y-89685380D02*
X199920857Y-89685380D01*
X199825619Y-89733000D01*
X199730380Y-89828238D01*
X199682761Y-90018714D01*
X199682761Y-90352047D01*
X199730380Y-90542523D01*
X199825619Y-90637761D01*
X199920857Y-90685380D01*
X200111333Y-90685380D01*
X200206571Y-90637761D01*
X200301809Y-90542523D01*
X200349428Y-90352047D01*
X200349428Y-90018714D01*
X200301809Y-89828238D01*
X200206571Y-89733000D01*
X200111333Y-89685380D01*
X199254190Y-90685380D02*
X199254190Y-89685380D01*
X198873238Y-89685380D01*
X198778000Y-89733000D01*
X198730380Y-89780619D01*
X198682761Y-89875857D01*
X198682761Y-90018714D01*
X198730380Y-90113952D01*
X198778000Y-90161571D01*
X198873238Y-90209190D01*
X199254190Y-90209190D01*
X198254190Y-90161571D02*
X197920857Y-90161571D01*
X197778000Y-90685380D02*
X198254190Y-90685380D01*
X198254190Y-89685380D01*
X197778000Y-89685380D01*
X197349428Y-90685380D02*
X197349428Y-89685380D01*
X196778000Y-90685380D01*
X196778000Y-89685380D01*
X195254190Y-89685380D02*
X195254190Y-90399666D01*
X195301809Y-90542523D01*
X195397047Y-90637761D01*
X195539904Y-90685380D01*
X195635142Y-90685380D01*
X194778000Y-90685380D02*
X194778000Y-89685380D01*
X194397047Y-89685380D01*
X194301809Y-89733000D01*
X194254190Y-89780619D01*
X194206571Y-89875857D01*
X194206571Y-90018714D01*
X194254190Y-90113952D01*
X194301809Y-90161571D01*
X194397047Y-90209190D01*
X194778000Y-90209190D01*
X193254190Y-90685380D02*
X193825619Y-90685380D01*
X193539904Y-90685380D02*
X193539904Y-89685380D01*
X193635142Y-89828238D01*
X193730380Y-89923476D01*
X193825619Y-89971095D01*
X192825619Y-90304428D02*
X192063714Y-90304428D01*
X191635142Y-89780619D02*
X191587523Y-89733000D01*
X191492285Y-89685380D01*
X191254190Y-89685380D01*
X191158952Y-89733000D01*
X191111333Y-89780619D01*
X191063714Y-89875857D01*
X191063714Y-89971095D01*
X191111333Y-90113952D01*
X191682761Y-90685380D01*
X191063714Y-90685380D01*
X189539904Y-90161571D02*
X189873238Y-90161571D01*
X189873238Y-90685380D02*
X189873238Y-89685380D01*
X189397047Y-89685380D01*
X188825619Y-89685380D02*
X188635142Y-89685380D01*
X188539904Y-89733000D01*
X188444666Y-89828238D01*
X188397047Y-90018714D01*
X188397047Y-90352047D01*
X188444666Y-90542523D01*
X188539904Y-90637761D01*
X188635142Y-90685380D01*
X188825619Y-90685380D01*
X188920857Y-90637761D01*
X189016095Y-90542523D01*
X189063714Y-90352047D01*
X189063714Y-90018714D01*
X189016095Y-89828238D01*
X188920857Y-89733000D01*
X188825619Y-89685380D01*
X187397047Y-90685380D02*
X187730380Y-90209190D01*
X187968476Y-90685380D02*
X187968476Y-89685380D01*
X187587523Y-89685380D01*
X187492285Y-89733000D01*
X187444666Y-89780619D01*
X187397047Y-89875857D01*
X187397047Y-90018714D01*
X187444666Y-90113952D01*
X187492285Y-90161571D01*
X187587523Y-90209190D01*
X187968476Y-90209190D01*
X186254190Y-90637761D02*
X186111333Y-90685380D01*
X185873238Y-90685380D01*
X185778000Y-90637761D01*
X185730380Y-90590142D01*
X185682761Y-90494904D01*
X185682761Y-90399666D01*
X185730380Y-90304428D01*
X185778000Y-90256809D01*
X185873238Y-90209190D01*
X186063714Y-90161571D01*
X186158952Y-90113952D01*
X186206571Y-90066333D01*
X186254190Y-89971095D01*
X186254190Y-89875857D01*
X186206571Y-89780619D01*
X186158952Y-89733000D01*
X186063714Y-89685380D01*
X185825619Y-89685380D01*
X185682761Y-89733000D01*
X185254190Y-90685380D02*
X185254190Y-89685380D01*
X184873238Y-89685380D01*
X184778000Y-89733000D01*
X184730380Y-89780619D01*
X184682761Y-89875857D01*
X184682761Y-90018714D01*
X184730380Y-90113952D01*
X184778000Y-90161571D01*
X184873238Y-90209190D01*
X185254190Y-90209190D01*
X184254190Y-90685380D02*
X184254190Y-89685380D01*
D10*
X181069380Y-92502857D02*
X179969380Y-92102857D01*
X181069380Y-91702857D01*
X179969380Y-91302857D02*
X181069380Y-91302857D01*
X179969380Y-90731428D02*
X181069380Y-90731428D01*
X179969380Y-90045714D01*
X181069380Y-90045714D01*
X181069380Y-89645714D02*
X181069380Y-88960000D01*
X179969380Y-89302857D02*
X181069380Y-89302857D01*
X179969380Y-87988571D02*
X179969380Y-88560000D01*
X181069380Y-88560000D01*
X180283666Y-87645714D02*
X180283666Y-87074285D01*
X179969380Y-87760000D02*
X181069380Y-87360000D01*
X179969380Y-86960000D01*
X180545571Y-86160000D02*
X180493190Y-85988571D01*
X180440809Y-85931428D01*
X180336047Y-85874285D01*
X180178904Y-85874285D01*
X180074142Y-85931428D01*
X180021761Y-85988571D01*
X179969380Y-86102857D01*
X179969380Y-86560000D01*
X181069380Y-86560000D01*
X181069380Y-86160000D01*
X181017000Y-86045714D01*
X180964619Y-85988571D01*
X180859857Y-85931428D01*
X180755095Y-85931428D01*
X180650333Y-85988571D01*
X180597952Y-86045714D01*
X180545571Y-86160000D01*
X180545571Y-86560000D01*
X180021761Y-85417142D02*
X179969380Y-85245714D01*
X179969380Y-84960000D01*
X180021761Y-84845714D01*
X180074142Y-84788571D01*
X180178904Y-84731428D01*
X180283666Y-84731428D01*
X180388428Y-84788571D01*
X180440809Y-84845714D01*
X180493190Y-84960000D01*
X180545571Y-85188571D01*
X180597952Y-85302857D01*
X180650333Y-85360000D01*
X180755095Y-85417142D01*
X180859857Y-85417142D01*
X180964619Y-85360000D01*
X181017000Y-85302857D01*
X181069380Y-85188571D01*
X181069380Y-84902857D01*
X181017000Y-84731428D01*
X180074142Y-84217142D02*
X180021761Y-84160000D01*
X179969380Y-84217142D01*
X180021761Y-84274285D01*
X180074142Y-84217142D01*
X179969380Y-84217142D01*
X180074142Y-82960000D02*
X180021761Y-83017142D01*
X179969380Y-83188571D01*
X179969380Y-83302857D01*
X180021761Y-83474285D01*
X180126523Y-83588571D01*
X180231285Y-83645714D01*
X180440809Y-83702857D01*
X180597952Y-83702857D01*
X180807476Y-83645714D01*
X180912238Y-83588571D01*
X181017000Y-83474285D01*
X181069380Y-83302857D01*
X181069380Y-83188571D01*
X181017000Y-83017142D01*
X180964619Y-82960000D01*
X181069380Y-82217142D02*
X181069380Y-81988571D01*
X181017000Y-81874285D01*
X180912238Y-81760000D01*
X180702714Y-81702857D01*
X180336047Y-81702857D01*
X180126523Y-81760000D01*
X180021761Y-81874285D01*
X179969380Y-81988571D01*
X179969380Y-82217142D01*
X180021761Y-82331428D01*
X180126523Y-82445714D01*
X180336047Y-82502857D01*
X180702714Y-82502857D01*
X180912238Y-82445714D01*
X181017000Y-82331428D01*
X181069380Y-82217142D01*
X179969380Y-81188571D02*
X181069380Y-81188571D01*
X180283666Y-80788571D01*
X181069380Y-80388571D01*
X179969380Y-80388571D01*
D11*
X204691619Y-79925047D02*
X203591619Y-79925047D01*
X203329714Y-80396476D02*
X203277333Y-80501238D01*
X203277333Y-80658380D01*
X203329714Y-80763142D01*
X203434476Y-80815523D01*
X203539238Y-80815523D01*
X203644000Y-80763142D01*
X204010666Y-80396476D01*
X204010666Y-80815523D01*
X204586857Y-81915523D02*
X204639238Y-81863142D01*
X204691619Y-81706000D01*
X204691619Y-81601238D01*
X204639238Y-81444095D01*
X204534476Y-81339333D01*
X204429714Y-81286952D01*
X204220190Y-81234571D01*
X204063047Y-81234571D01*
X203853523Y-81286952D01*
X203748761Y-81339333D01*
X203644000Y-81444095D01*
X203591619Y-81601238D01*
X203591619Y-81706000D01*
X203644000Y-81863142D01*
X203696380Y-81915523D01*
X204115428Y-83591714D02*
X204167809Y-83748857D01*
X204220190Y-83801238D01*
X204324952Y-83853619D01*
X204482095Y-83853619D01*
X204586857Y-83801238D01*
X204639238Y-83748857D01*
X204691619Y-83644095D01*
X204691619Y-83225047D01*
X203591619Y-83225047D01*
X203591619Y-83591714D01*
X203644000Y-83696476D01*
X203696380Y-83748857D01*
X203801142Y-83801238D01*
X203905904Y-83801238D01*
X204010666Y-83748857D01*
X204063047Y-83696476D01*
X204115428Y-83591714D01*
X204115428Y-83225047D01*
X204691619Y-84796476D02*
X204115428Y-84796476D01*
X204010666Y-84744095D01*
X203958285Y-84639333D01*
X203958285Y-84429809D01*
X204010666Y-84325047D01*
X204639238Y-84796476D02*
X204691619Y-84691714D01*
X204691619Y-84429809D01*
X204639238Y-84325047D01*
X204534476Y-84272666D01*
X204429714Y-84272666D01*
X204324952Y-84325047D01*
X204272571Y-84429809D01*
X204272571Y-84691714D01*
X204220190Y-84796476D01*
X204691619Y-85320285D02*
X203958285Y-85320285D01*
X204167809Y-85320285D02*
X204063047Y-85372666D01*
X204010666Y-85425047D01*
X203958285Y-85529809D01*
X203958285Y-85634571D01*
X204691619Y-86158380D02*
X204639238Y-86053619D01*
X204586857Y-86001238D01*
X204482095Y-85948857D01*
X204167809Y-85948857D01*
X204063047Y-86001238D01*
X204010666Y-86053619D01*
X203958285Y-86158380D01*
X203958285Y-86315523D01*
X204010666Y-86420285D01*
X204063047Y-86472666D01*
X204167809Y-86525047D01*
X204482095Y-86525047D01*
X204586857Y-86472666D01*
X204639238Y-86420285D01*
X204691619Y-86315523D01*
X204691619Y-86158380D01*
X204691619Y-86996476D02*
X203958285Y-86996476D01*
X204063047Y-86996476D02*
X204010666Y-87048857D01*
X203958285Y-87153619D01*
X203958285Y-87310761D01*
X204010666Y-87415523D01*
X204115428Y-87467904D01*
X204691619Y-87467904D01*
X204115428Y-87467904D02*
X204010666Y-87520285D01*
X203958285Y-87625047D01*
X203958285Y-87782190D01*
X204010666Y-87886952D01*
X204115428Y-87939333D01*
X204691619Y-87939333D01*
X204639238Y-88882190D02*
X204691619Y-88777428D01*
X204691619Y-88567904D01*
X204639238Y-88463142D01*
X204534476Y-88410761D01*
X204115428Y-88410761D01*
X204010666Y-88463142D01*
X203958285Y-88567904D01*
X203958285Y-88777428D01*
X204010666Y-88882190D01*
X204115428Y-88934571D01*
X204220190Y-88934571D01*
X204324952Y-88410761D01*
X203958285Y-89248857D02*
X203958285Y-89667904D01*
X203591619Y-89406000D02*
X204534476Y-89406000D01*
X204639238Y-89458380D01*
X204691619Y-89563142D01*
X204691619Y-89667904D01*
X204639238Y-90453619D02*
X204691619Y-90348857D01*
X204691619Y-90139333D01*
X204639238Y-90034571D01*
X204534476Y-89982190D01*
X204115428Y-89982190D01*
X204010666Y-90034571D01*
X203958285Y-90139333D01*
X203958285Y-90348857D01*
X204010666Y-90453619D01*
X204115428Y-90506000D01*
X204220190Y-90506000D01*
X204324952Y-89982190D01*
X204691619Y-90977428D02*
X203958285Y-90977428D01*
X204167809Y-90977428D02*
X204063047Y-91029809D01*
X204010666Y-91082190D01*
X203958285Y-91186952D01*
X203958285Y-91291714D01*
X203539238Y-92444095D02*
X204953523Y-91501238D01*
X206177333Y-82648857D02*
X206177333Y-83172666D01*
X206491619Y-82544095D02*
X205391619Y-82910761D01*
X206491619Y-83277428D01*
X206491619Y-83801238D02*
X206439238Y-83696476D01*
X206334476Y-83644095D01*
X205391619Y-83644095D01*
X205758285Y-84063142D02*
X205758285Y-84482190D01*
X205391619Y-84220285D02*
X206334476Y-84220285D01*
X206439238Y-84272666D01*
X206491619Y-84377428D01*
X206491619Y-84482190D01*
X206491619Y-84848857D02*
X205758285Y-84848857D01*
X205391619Y-84848857D02*
X205444000Y-84796476D01*
X205496380Y-84848857D01*
X205444000Y-84901238D01*
X205391619Y-84848857D01*
X205496380Y-84848857D01*
X206491619Y-85372666D02*
X205758285Y-85372666D01*
X205863047Y-85372666D02*
X205810666Y-85425047D01*
X205758285Y-85529809D01*
X205758285Y-85686952D01*
X205810666Y-85791714D01*
X205915428Y-85844095D01*
X206491619Y-85844095D01*
X205915428Y-85844095D02*
X205810666Y-85896476D01*
X205758285Y-86001238D01*
X205758285Y-86158380D01*
X205810666Y-86263142D01*
X205915428Y-86315523D01*
X206491619Y-86315523D01*
X206439238Y-87258380D02*
X206491619Y-87153619D01*
X206491619Y-86944095D01*
X206439238Y-86839333D01*
X206334476Y-86786952D01*
X205915428Y-86786952D01*
X205810666Y-86839333D01*
X205758285Y-86944095D01*
X205758285Y-87153619D01*
X205810666Y-87258380D01*
X205915428Y-87310761D01*
X206020190Y-87310761D01*
X206124952Y-86786952D01*
X205758285Y-87625047D02*
X205758285Y-88044095D01*
X205391619Y-87782190D02*
X206334476Y-87782190D01*
X206439238Y-87834571D01*
X206491619Y-87939333D01*
X206491619Y-88044095D01*
X206439238Y-88829809D02*
X206491619Y-88725047D01*
X206491619Y-88515523D01*
X206439238Y-88410761D01*
X206334476Y-88358380D01*
X205915428Y-88358380D01*
X205810666Y-88410761D01*
X205758285Y-88515523D01*
X205758285Y-88725047D01*
X205810666Y-88829809D01*
X205915428Y-88882190D01*
X206020190Y-88882190D01*
X206124952Y-88358380D01*
X206491619Y-89353619D02*
X205758285Y-89353619D01*
X205967809Y-89353619D02*
X205863047Y-89406000D01*
X205810666Y-89458380D01*
X205758285Y-89563142D01*
X205758285Y-89667904D01*
D12*
G04 #@! TO.C,JP6*
X191500000Y-86236000D02*
X191500000Y-83436000D01*
X191500000Y-83436000D02*
X189500000Y-83436000D01*
X189500000Y-83436000D02*
X189500000Y-86236000D01*
X189500000Y-86236000D02*
X191500000Y-86236000D01*
G04 #@! TO.C,JP5*
X185690000Y-86236000D02*
X187690000Y-86236000D01*
X185690000Y-83436000D02*
X185690000Y-86236000D01*
X187690000Y-83436000D02*
X185690000Y-83436000D01*
X187690000Y-86236000D02*
X187690000Y-83436000D01*
G04 #@! TO.C,JP4*
X191500000Y-82680000D02*
X191500000Y-79880000D01*
X191500000Y-79880000D02*
X189500000Y-79880000D01*
X189500000Y-79880000D02*
X189500000Y-82680000D01*
X189500000Y-82680000D02*
X191500000Y-82680000D01*
G04 #@! TO.C,JP3*
X185690000Y-82680000D02*
X187690000Y-82680000D01*
X185690000Y-79880000D02*
X185690000Y-82680000D01*
X187690000Y-79880000D02*
X185690000Y-79880000D01*
X187690000Y-82680000D02*
X187690000Y-79880000D01*
G04 #@! TO.C,JP6*
D11*
X191752380Y-84002666D02*
X192466666Y-84002666D01*
X192609523Y-83955047D01*
X192704761Y-83859809D01*
X192752380Y-83716952D01*
X192752380Y-83621714D01*
X192752380Y-84478857D02*
X191752380Y-84478857D01*
X191752380Y-84859809D01*
X191800000Y-84955047D01*
X191847619Y-85002666D01*
X191942857Y-85050285D01*
X192085714Y-85050285D01*
X192180952Y-85002666D01*
X192228571Y-84955047D01*
X192276190Y-84859809D01*
X192276190Y-84478857D01*
X191752380Y-85907428D02*
X191752380Y-85716952D01*
X191800000Y-85621714D01*
X191847619Y-85574095D01*
X191990476Y-85478857D01*
X192180952Y-85431238D01*
X192561904Y-85431238D01*
X192657142Y-85478857D01*
X192704761Y-85526476D01*
X192752380Y-85621714D01*
X192752380Y-85812190D01*
X192704761Y-85907428D01*
X192657142Y-85955047D01*
X192561904Y-86002666D01*
X192323809Y-86002666D01*
X192228571Y-85955047D01*
X192180952Y-85907428D01*
X192133333Y-85812190D01*
X192133333Y-85621714D01*
X192180952Y-85526476D01*
X192228571Y-85478857D01*
X192323809Y-85431238D01*
G04 #@! TO.C,JP5*
X187942380Y-84002666D02*
X188656666Y-84002666D01*
X188799523Y-83955047D01*
X188894761Y-83859809D01*
X188942380Y-83716952D01*
X188942380Y-83621714D01*
X188942380Y-84478857D02*
X187942380Y-84478857D01*
X187942380Y-84859809D01*
X187990000Y-84955047D01*
X188037619Y-85002666D01*
X188132857Y-85050285D01*
X188275714Y-85050285D01*
X188370952Y-85002666D01*
X188418571Y-84955047D01*
X188466190Y-84859809D01*
X188466190Y-84478857D01*
X187942380Y-85955047D02*
X187942380Y-85478857D01*
X188418571Y-85431238D01*
X188370952Y-85478857D01*
X188323333Y-85574095D01*
X188323333Y-85812190D01*
X188370952Y-85907428D01*
X188418571Y-85955047D01*
X188513809Y-86002666D01*
X188751904Y-86002666D01*
X188847142Y-85955047D01*
X188894761Y-85907428D01*
X188942380Y-85812190D01*
X188942380Y-85574095D01*
X188894761Y-85478857D01*
X188847142Y-85431238D01*
G04 #@! TO.C,JP4*
X191752380Y-80446666D02*
X192466666Y-80446666D01*
X192609523Y-80399047D01*
X192704761Y-80303809D01*
X192752380Y-80160952D01*
X192752380Y-80065714D01*
X192752380Y-80922857D02*
X191752380Y-80922857D01*
X191752380Y-81303809D01*
X191800000Y-81399047D01*
X191847619Y-81446666D01*
X191942857Y-81494285D01*
X192085714Y-81494285D01*
X192180952Y-81446666D01*
X192228571Y-81399047D01*
X192276190Y-81303809D01*
X192276190Y-80922857D01*
X192085714Y-82351428D02*
X192752380Y-82351428D01*
X191704761Y-82113333D02*
X192419047Y-81875238D01*
X192419047Y-82494285D01*
G04 #@! TO.C,JP3*
X187942380Y-80446666D02*
X188656666Y-80446666D01*
X188799523Y-80399047D01*
X188894761Y-80303809D01*
X188942380Y-80160952D01*
X188942380Y-80065714D01*
X188942380Y-80922857D02*
X187942380Y-80922857D01*
X187942380Y-81303809D01*
X187990000Y-81399047D01*
X188037619Y-81446666D01*
X188132857Y-81494285D01*
X188275714Y-81494285D01*
X188370952Y-81446666D01*
X188418571Y-81399047D01*
X188466190Y-81303809D01*
X188466190Y-80922857D01*
X187942380Y-81827619D02*
X187942380Y-82446666D01*
X188323333Y-82113333D01*
X188323333Y-82256190D01*
X188370952Y-82351428D01*
X188418571Y-82399047D01*
X188513809Y-82446666D01*
X188751904Y-82446666D01*
X188847142Y-82399047D01*
X188894761Y-82351428D01*
X188942380Y-82256190D01*
X188942380Y-81970476D01*
X188894761Y-81875238D01*
X188847142Y-81827619D01*
G04 #@! TD*
M02*
