G04 #@! TF.GenerationSoftware,KiCad,Pcbnew,5.0.0*
G04 #@! TF.CreationDate,2018-11-11T14:42:04-05:00*
G04 #@! TF.ProjectId,Barometer-Pi-Module,4261726F6D657465722D50692D4D6F64,rev?*
G04 #@! TF.SameCoordinates,Original*
G04 #@! TF.FileFunction,Soldermask,Top*
G04 #@! TF.FilePolarity,Negative*
%FSLAX46Y46*%
G04 Gerber Fmt 4.6, Leading zero omitted, Abs format (unit mm)*
G04 Created by KiCad (PCBNEW 5.0.0) date Sun Nov 11 14:42:04 2018*
%MOMM*%
%LPD*%
G01*
G04 APERTURE LIST*
%ADD10C,0.150000*%
%ADD11R,2.100000X2.100000*%
%ADD12O,2.100000X2.100000*%
%ADD13C,1.000000*%
%ADD14C,0.100000*%
%ADD15R,1.900000X1.400000*%
%ADD16R,1.710000X0.930000*%
%ADD17C,1.375000*%
G04 APERTURE END LIST*
D10*
G36*
X195518296Y-88989545D02*
X195518296Y-92164545D01*
X192216296Y-92164545D01*
X192216296Y-88989545D01*
X195518296Y-88989545D01*
G37*
X195518296Y-88989545D02*
X195518296Y-92164545D01*
X192216296Y-92164545D01*
X192216296Y-88989545D01*
X195518296Y-88989545D01*
D11*
G04 #@! TO.C,J2*
X195580000Y-81026000D03*
D12*
X198120000Y-81026000D03*
X195580000Y-83566000D03*
X198120000Y-83566000D03*
X195580000Y-86106000D03*
X198120000Y-86106000D03*
G04 #@! TD*
D13*
G04 #@! TO.C,JP2*
X191008000Y-82916000D03*
D14*
G36*
X191954157Y-83455018D02*
X191942776Y-83492537D01*
X191924294Y-83527114D01*
X191899421Y-83557421D01*
X191869114Y-83582294D01*
X191834537Y-83600776D01*
X191797018Y-83612157D01*
X191758000Y-83616000D01*
X191508000Y-83616000D01*
X191508000Y-83816000D01*
X191504157Y-83855018D01*
X191492776Y-83892537D01*
X191474294Y-83927114D01*
X191449421Y-83957421D01*
X191419114Y-83982294D01*
X191384537Y-84000776D01*
X191347018Y-84012157D01*
X191308000Y-84016000D01*
X190708000Y-84016000D01*
X190668982Y-84012157D01*
X190631463Y-84000776D01*
X190596886Y-83982294D01*
X190566579Y-83957421D01*
X190541706Y-83927114D01*
X190523224Y-83892537D01*
X190511843Y-83855018D01*
X190508000Y-83816000D01*
X190508000Y-83616000D01*
X190258000Y-83616000D01*
X190218982Y-83612157D01*
X190181463Y-83600776D01*
X190146886Y-83582294D01*
X190116579Y-83557421D01*
X190091706Y-83527114D01*
X190073224Y-83492537D01*
X190061843Y-83455018D01*
X190058000Y-83416000D01*
X190058000Y-82416000D01*
X190061843Y-82376982D01*
X190073224Y-82339463D01*
X190091706Y-82304886D01*
X190116579Y-82274579D01*
X190146886Y-82249706D01*
X190181463Y-82231224D01*
X190218982Y-82219843D01*
X190258000Y-82216000D01*
X191758000Y-82216000D01*
X191797018Y-82219843D01*
X191834537Y-82231224D01*
X191869114Y-82249706D01*
X191899421Y-82274579D01*
X191924294Y-82304886D01*
X191942776Y-82339463D01*
X191954157Y-82376982D01*
X191958000Y-82416000D01*
X191958000Y-83416000D01*
X191954157Y-83455018D01*
X191954157Y-83455018D01*
G37*
D15*
X191008000Y-84216000D03*
G04 #@! TD*
G04 #@! TO.C,JP1*
X187960000Y-84216000D03*
X187960000Y-82916000D03*
G04 #@! TD*
D16*
G04 #@! TO.C,U1*
X195067296Y-92388545D03*
X192667296Y-92388545D03*
X195067296Y-91138545D03*
X195067296Y-89888545D03*
X195067296Y-88638545D03*
X192667296Y-88638545D03*
X192667296Y-89888545D03*
X192667296Y-91138545D03*
G04 #@! TD*
D12*
G04 #@! TO.C,J4*
X201930000Y-91440000D03*
X201930000Y-88900000D03*
X201930000Y-86360000D03*
X201930000Y-83820000D03*
D11*
X201930000Y-81280000D03*
G04 #@! TD*
D12*
G04 #@! TO.C,J1*
X182880000Y-91440000D03*
X182880000Y-88900000D03*
X182880000Y-86360000D03*
X182880000Y-83820000D03*
D11*
X182880000Y-81280000D03*
G04 #@! TD*
D14*
G04 #@! TO.C,C1*
G36*
X198709943Y-90384200D02*
X198743312Y-90389150D01*
X198776035Y-90397347D01*
X198807797Y-90408711D01*
X198838293Y-90423135D01*
X198867227Y-90440477D01*
X198894323Y-90460573D01*
X198919318Y-90483227D01*
X198941972Y-90508222D01*
X198962068Y-90535318D01*
X198979410Y-90564252D01*
X198993834Y-90594748D01*
X199005198Y-90626510D01*
X199013395Y-90659233D01*
X199018345Y-90692602D01*
X199020000Y-90726295D01*
X199020000Y-91413795D01*
X199018345Y-91447488D01*
X199013395Y-91480857D01*
X199005198Y-91513580D01*
X198993834Y-91545342D01*
X198979410Y-91575838D01*
X198962068Y-91604772D01*
X198941972Y-91631868D01*
X198919318Y-91656863D01*
X198894323Y-91679517D01*
X198867227Y-91699613D01*
X198838293Y-91716955D01*
X198807797Y-91731379D01*
X198776035Y-91742743D01*
X198743312Y-91750940D01*
X198709943Y-91755890D01*
X198676250Y-91757545D01*
X197563750Y-91757545D01*
X197530057Y-91755890D01*
X197496688Y-91750940D01*
X197463965Y-91742743D01*
X197432203Y-91731379D01*
X197401707Y-91716955D01*
X197372773Y-91699613D01*
X197345677Y-91679517D01*
X197320682Y-91656863D01*
X197298028Y-91631868D01*
X197277932Y-91604772D01*
X197260590Y-91575838D01*
X197246166Y-91545342D01*
X197234802Y-91513580D01*
X197226605Y-91480857D01*
X197221655Y-91447488D01*
X197220000Y-91413795D01*
X197220000Y-90726295D01*
X197221655Y-90692602D01*
X197226605Y-90659233D01*
X197234802Y-90626510D01*
X197246166Y-90594748D01*
X197260590Y-90564252D01*
X197277932Y-90535318D01*
X197298028Y-90508222D01*
X197320682Y-90483227D01*
X197345677Y-90460573D01*
X197372773Y-90440477D01*
X197401707Y-90423135D01*
X197432203Y-90408711D01*
X197463965Y-90397347D01*
X197496688Y-90389150D01*
X197530057Y-90384200D01*
X197563750Y-90382545D01*
X198676250Y-90382545D01*
X198709943Y-90384200D01*
X198709943Y-90384200D01*
G37*
D17*
X198120000Y-91070045D03*
D14*
G36*
X198709943Y-88509200D02*
X198743312Y-88514150D01*
X198776035Y-88522347D01*
X198807797Y-88533711D01*
X198838293Y-88548135D01*
X198867227Y-88565477D01*
X198894323Y-88585573D01*
X198919318Y-88608227D01*
X198941972Y-88633222D01*
X198962068Y-88660318D01*
X198979410Y-88689252D01*
X198993834Y-88719748D01*
X199005198Y-88751510D01*
X199013395Y-88784233D01*
X199018345Y-88817602D01*
X199020000Y-88851295D01*
X199020000Y-89538795D01*
X199018345Y-89572488D01*
X199013395Y-89605857D01*
X199005198Y-89638580D01*
X198993834Y-89670342D01*
X198979410Y-89700838D01*
X198962068Y-89729772D01*
X198941972Y-89756868D01*
X198919318Y-89781863D01*
X198894323Y-89804517D01*
X198867227Y-89824613D01*
X198838293Y-89841955D01*
X198807797Y-89856379D01*
X198776035Y-89867743D01*
X198743312Y-89875940D01*
X198709943Y-89880890D01*
X198676250Y-89882545D01*
X197563750Y-89882545D01*
X197530057Y-89880890D01*
X197496688Y-89875940D01*
X197463965Y-89867743D01*
X197432203Y-89856379D01*
X197401707Y-89841955D01*
X197372773Y-89824613D01*
X197345677Y-89804517D01*
X197320682Y-89781863D01*
X197298028Y-89756868D01*
X197277932Y-89729772D01*
X197260590Y-89700838D01*
X197246166Y-89670342D01*
X197234802Y-89638580D01*
X197226605Y-89605857D01*
X197221655Y-89572488D01*
X197220000Y-89538795D01*
X197220000Y-88851295D01*
X197221655Y-88817602D01*
X197226605Y-88784233D01*
X197234802Y-88751510D01*
X197246166Y-88719748D01*
X197260590Y-88689252D01*
X197277932Y-88660318D01*
X197298028Y-88633222D01*
X197320682Y-88608227D01*
X197345677Y-88585573D01*
X197372773Y-88565477D01*
X197401707Y-88548135D01*
X197432203Y-88533711D01*
X197463965Y-88522347D01*
X197496688Y-88514150D01*
X197530057Y-88509200D01*
X197563750Y-88507545D01*
X198676250Y-88507545D01*
X198709943Y-88509200D01*
X198709943Y-88509200D01*
G37*
D17*
X198120000Y-89195045D03*
G04 #@! TD*
D14*
G04 #@! TO.C,R2*
G36*
X189819943Y-88546655D02*
X189853312Y-88551605D01*
X189886035Y-88559802D01*
X189917797Y-88571166D01*
X189948293Y-88585590D01*
X189977227Y-88602932D01*
X190004323Y-88623028D01*
X190029318Y-88645682D01*
X190051972Y-88670677D01*
X190072068Y-88697773D01*
X190089410Y-88726707D01*
X190103834Y-88757203D01*
X190115198Y-88788965D01*
X190123395Y-88821688D01*
X190128345Y-88855057D01*
X190130000Y-88888750D01*
X190130000Y-89576250D01*
X190128345Y-89609943D01*
X190123395Y-89643312D01*
X190115198Y-89676035D01*
X190103834Y-89707797D01*
X190089410Y-89738293D01*
X190072068Y-89767227D01*
X190051972Y-89794323D01*
X190029318Y-89819318D01*
X190004323Y-89841972D01*
X189977227Y-89862068D01*
X189948293Y-89879410D01*
X189917797Y-89893834D01*
X189886035Y-89905198D01*
X189853312Y-89913395D01*
X189819943Y-89918345D01*
X189786250Y-89920000D01*
X188673750Y-89920000D01*
X188640057Y-89918345D01*
X188606688Y-89913395D01*
X188573965Y-89905198D01*
X188542203Y-89893834D01*
X188511707Y-89879410D01*
X188482773Y-89862068D01*
X188455677Y-89841972D01*
X188430682Y-89819318D01*
X188408028Y-89794323D01*
X188387932Y-89767227D01*
X188370590Y-89738293D01*
X188356166Y-89707797D01*
X188344802Y-89676035D01*
X188336605Y-89643312D01*
X188331655Y-89609943D01*
X188330000Y-89576250D01*
X188330000Y-88888750D01*
X188331655Y-88855057D01*
X188336605Y-88821688D01*
X188344802Y-88788965D01*
X188356166Y-88757203D01*
X188370590Y-88726707D01*
X188387932Y-88697773D01*
X188408028Y-88670677D01*
X188430682Y-88645682D01*
X188455677Y-88623028D01*
X188482773Y-88602932D01*
X188511707Y-88585590D01*
X188542203Y-88571166D01*
X188573965Y-88559802D01*
X188606688Y-88551605D01*
X188640057Y-88546655D01*
X188673750Y-88545000D01*
X189786250Y-88545000D01*
X189819943Y-88546655D01*
X189819943Y-88546655D01*
G37*
D17*
X189230000Y-89232500D03*
D14*
G36*
X189819943Y-90421655D02*
X189853312Y-90426605D01*
X189886035Y-90434802D01*
X189917797Y-90446166D01*
X189948293Y-90460590D01*
X189977227Y-90477932D01*
X190004323Y-90498028D01*
X190029318Y-90520682D01*
X190051972Y-90545677D01*
X190072068Y-90572773D01*
X190089410Y-90601707D01*
X190103834Y-90632203D01*
X190115198Y-90663965D01*
X190123395Y-90696688D01*
X190128345Y-90730057D01*
X190130000Y-90763750D01*
X190130000Y-91451250D01*
X190128345Y-91484943D01*
X190123395Y-91518312D01*
X190115198Y-91551035D01*
X190103834Y-91582797D01*
X190089410Y-91613293D01*
X190072068Y-91642227D01*
X190051972Y-91669323D01*
X190029318Y-91694318D01*
X190004323Y-91716972D01*
X189977227Y-91737068D01*
X189948293Y-91754410D01*
X189917797Y-91768834D01*
X189886035Y-91780198D01*
X189853312Y-91788395D01*
X189819943Y-91793345D01*
X189786250Y-91795000D01*
X188673750Y-91795000D01*
X188640057Y-91793345D01*
X188606688Y-91788395D01*
X188573965Y-91780198D01*
X188542203Y-91768834D01*
X188511707Y-91754410D01*
X188482773Y-91737068D01*
X188455677Y-91716972D01*
X188430682Y-91694318D01*
X188408028Y-91669323D01*
X188387932Y-91642227D01*
X188370590Y-91613293D01*
X188356166Y-91582797D01*
X188344802Y-91551035D01*
X188336605Y-91518312D01*
X188331655Y-91484943D01*
X188330000Y-91451250D01*
X188330000Y-90763750D01*
X188331655Y-90730057D01*
X188336605Y-90696688D01*
X188344802Y-90663965D01*
X188356166Y-90632203D01*
X188370590Y-90601707D01*
X188387932Y-90572773D01*
X188408028Y-90545677D01*
X188430682Y-90520682D01*
X188455677Y-90498028D01*
X188482773Y-90477932D01*
X188511707Y-90460590D01*
X188542203Y-90446166D01*
X188573965Y-90434802D01*
X188606688Y-90426605D01*
X188640057Y-90421655D01*
X188673750Y-90420000D01*
X189786250Y-90420000D01*
X189819943Y-90421655D01*
X189819943Y-90421655D01*
G37*
D17*
X189230000Y-91107500D03*
G04 #@! TD*
D14*
G04 #@! TO.C,R1*
G36*
X187279943Y-90421655D02*
X187313312Y-90426605D01*
X187346035Y-90434802D01*
X187377797Y-90446166D01*
X187408293Y-90460590D01*
X187437227Y-90477932D01*
X187464323Y-90498028D01*
X187489318Y-90520682D01*
X187511972Y-90545677D01*
X187532068Y-90572773D01*
X187549410Y-90601707D01*
X187563834Y-90632203D01*
X187575198Y-90663965D01*
X187583395Y-90696688D01*
X187588345Y-90730057D01*
X187590000Y-90763750D01*
X187590000Y-91451250D01*
X187588345Y-91484943D01*
X187583395Y-91518312D01*
X187575198Y-91551035D01*
X187563834Y-91582797D01*
X187549410Y-91613293D01*
X187532068Y-91642227D01*
X187511972Y-91669323D01*
X187489318Y-91694318D01*
X187464323Y-91716972D01*
X187437227Y-91737068D01*
X187408293Y-91754410D01*
X187377797Y-91768834D01*
X187346035Y-91780198D01*
X187313312Y-91788395D01*
X187279943Y-91793345D01*
X187246250Y-91795000D01*
X186133750Y-91795000D01*
X186100057Y-91793345D01*
X186066688Y-91788395D01*
X186033965Y-91780198D01*
X186002203Y-91768834D01*
X185971707Y-91754410D01*
X185942773Y-91737068D01*
X185915677Y-91716972D01*
X185890682Y-91694318D01*
X185868028Y-91669323D01*
X185847932Y-91642227D01*
X185830590Y-91613293D01*
X185816166Y-91582797D01*
X185804802Y-91551035D01*
X185796605Y-91518312D01*
X185791655Y-91484943D01*
X185790000Y-91451250D01*
X185790000Y-90763750D01*
X185791655Y-90730057D01*
X185796605Y-90696688D01*
X185804802Y-90663965D01*
X185816166Y-90632203D01*
X185830590Y-90601707D01*
X185847932Y-90572773D01*
X185868028Y-90545677D01*
X185890682Y-90520682D01*
X185915677Y-90498028D01*
X185942773Y-90477932D01*
X185971707Y-90460590D01*
X186002203Y-90446166D01*
X186033965Y-90434802D01*
X186066688Y-90426605D01*
X186100057Y-90421655D01*
X186133750Y-90420000D01*
X187246250Y-90420000D01*
X187279943Y-90421655D01*
X187279943Y-90421655D01*
G37*
D17*
X186690000Y-91107500D03*
D14*
G36*
X187279943Y-88546655D02*
X187313312Y-88551605D01*
X187346035Y-88559802D01*
X187377797Y-88571166D01*
X187408293Y-88585590D01*
X187437227Y-88602932D01*
X187464323Y-88623028D01*
X187489318Y-88645682D01*
X187511972Y-88670677D01*
X187532068Y-88697773D01*
X187549410Y-88726707D01*
X187563834Y-88757203D01*
X187575198Y-88788965D01*
X187583395Y-88821688D01*
X187588345Y-88855057D01*
X187590000Y-88888750D01*
X187590000Y-89576250D01*
X187588345Y-89609943D01*
X187583395Y-89643312D01*
X187575198Y-89676035D01*
X187563834Y-89707797D01*
X187549410Y-89738293D01*
X187532068Y-89767227D01*
X187511972Y-89794323D01*
X187489318Y-89819318D01*
X187464323Y-89841972D01*
X187437227Y-89862068D01*
X187408293Y-89879410D01*
X187377797Y-89893834D01*
X187346035Y-89905198D01*
X187313312Y-89913395D01*
X187279943Y-89918345D01*
X187246250Y-89920000D01*
X186133750Y-89920000D01*
X186100057Y-89918345D01*
X186066688Y-89913395D01*
X186033965Y-89905198D01*
X186002203Y-89893834D01*
X185971707Y-89879410D01*
X185942773Y-89862068D01*
X185915677Y-89841972D01*
X185890682Y-89819318D01*
X185868028Y-89794323D01*
X185847932Y-89767227D01*
X185830590Y-89738293D01*
X185816166Y-89707797D01*
X185804802Y-89676035D01*
X185796605Y-89643312D01*
X185791655Y-89609943D01*
X185790000Y-89576250D01*
X185790000Y-88888750D01*
X185791655Y-88855057D01*
X185796605Y-88821688D01*
X185804802Y-88788965D01*
X185816166Y-88757203D01*
X185830590Y-88726707D01*
X185847932Y-88697773D01*
X185868028Y-88670677D01*
X185890682Y-88645682D01*
X185915677Y-88623028D01*
X185942773Y-88602932D01*
X185971707Y-88585590D01*
X186002203Y-88571166D01*
X186033965Y-88559802D01*
X186066688Y-88551605D01*
X186100057Y-88546655D01*
X186133750Y-88545000D01*
X187246250Y-88545000D01*
X187279943Y-88546655D01*
X187279943Y-88546655D01*
G37*
D17*
X186690000Y-89232500D03*
G04 #@! TD*
M02*
