G04 #@! TF.GenerationSoftware,KiCad,Pcbnew,5.0.0*
G04 #@! TF.CreationDate,2018-11-11T14:42:04-05:00*
G04 #@! TF.ProjectId,Barometer-Pi-Module,4261726F6D657465722D50692D4D6F64,rev?*
G04 #@! TF.SameCoordinates,Original*
G04 #@! TF.FileFunction,Copper,L2,Bot,Signal*
G04 #@! TF.FilePolarity,Positive*
%FSLAX46Y46*%
G04 Gerber Fmt 4.6, Leading zero omitted, Abs format (unit mm)*
G04 Created by KiCad (PCBNEW 5.0.0) date Sun Nov 11 14:42:04 2018*
%MOMM*%
%LPD*%
G01*
G04 APERTURE LIST*
G04 #@! TA.AperFunction,ComponentPad*
%ADD10R,1.700000X1.700000*%
G04 #@! TD*
G04 #@! TA.AperFunction,ComponentPad*
%ADD11O,1.700000X1.700000*%
G04 #@! TD*
G04 #@! TA.AperFunction,SMDPad,CuDef*
%ADD12R,1.500000X1.000000*%
G04 #@! TD*
G04 #@! TA.AperFunction,ViaPad*
%ADD13C,0.800000*%
G04 #@! TD*
G04 #@! TA.AperFunction,Conductor*
%ADD14C,0.500000*%
G04 #@! TD*
G04 #@! TA.AperFunction,Conductor*
%ADD15C,0.250000*%
G04 #@! TD*
G04 #@! TA.AperFunction,Conductor*
%ADD16C,0.254000*%
G04 #@! TD*
G04 APERTURE END LIST*
D10*
G04 #@! TO.P,J2,1*
G04 #@! TO.N,SPI_MISO*
X195580000Y-81026000D03*
D11*
G04 #@! TO.P,J2,2*
G04 #@! TO.N,SPI_VCC*
X198120000Y-81026000D03*
G04 #@! TO.P,J2,3*
G04 #@! TO.N,SPI_SCK*
X195580000Y-83566000D03*
G04 #@! TO.P,J2,4*
G04 #@! TO.N,SPI_MOSI*
X198120000Y-83566000D03*
G04 #@! TO.P,J2,5*
G04 #@! TO.N,SPI_CS*
X195580000Y-86106000D03*
G04 #@! TO.P,J2,6*
G04 #@! TO.N,Earth*
X198120000Y-86106000D03*
G04 #@! TD*
D12*
G04 #@! TO.P,JP6,1*
G04 #@! TO.N,CSB*
X190500000Y-85486000D03*
G04 #@! TO.P,JP6,2*
G04 #@! TO.N,SPI_CS*
X190500000Y-84186000D03*
G04 #@! TD*
G04 #@! TO.P,JP5,2*
G04 #@! TO.N,SDA*
X186690000Y-84186000D03*
G04 #@! TO.P,JP5,1*
G04 #@! TO.N,SPI_MOSI*
X186690000Y-85486000D03*
G04 #@! TD*
G04 #@! TO.P,JP4,1*
G04 #@! TO.N,SPI_SCK*
X190500000Y-81930000D03*
G04 #@! TO.P,JP4,2*
G04 #@! TO.N,SCL*
X190500000Y-80630000D03*
G04 #@! TD*
G04 #@! TO.P,JP3,2*
G04 #@! TO.N,Earth*
X186690000Y-80630000D03*
G04 #@! TO.P,JP3,1*
G04 #@! TO.N,PS*
X186690000Y-81930000D03*
G04 #@! TD*
D11*
G04 #@! TO.P,J4,5*
G04 #@! TO.N,VDD*
X201930000Y-91440000D03*
G04 #@! TO.P,J4,4*
G04 #@! TO.N,SDA*
X201930000Y-88900000D03*
G04 #@! TO.P,J4,3*
G04 #@! TO.N,SCL*
X201930000Y-86360000D03*
G04 #@! TO.P,J4,2*
G04 #@! TO.N,Net-(J4-Pad2)*
X201930000Y-83820000D03*
D10*
G04 #@! TO.P,J4,1*
G04 #@! TO.N,Earth*
X201930000Y-81280000D03*
G04 #@! TD*
D11*
G04 #@! TO.P,J1,5*
G04 #@! TO.N,VDD*
X182880000Y-91440000D03*
G04 #@! TO.P,J1,4*
G04 #@! TO.N,SDA*
X182880000Y-88900000D03*
G04 #@! TO.P,J1,3*
G04 #@! TO.N,SCL*
X182880000Y-86360000D03*
G04 #@! TO.P,J1,2*
G04 #@! TO.N,Net-(J1-Pad2)*
X182880000Y-83820000D03*
D10*
G04 #@! TO.P,J1,1*
G04 #@! TO.N,Earth*
X182880000Y-81280000D03*
G04 #@! TD*
D13*
G04 #@! TO.N,VDD*
X197104000Y-92202000D03*
G04 #@! TO.N,SDA*
X191262000Y-90170000D03*
X187960000Y-89916000D03*
G04 #@! TO.N,SCL*
X188976000Y-80772000D03*
G04 #@! TO.N,Earth*
X199136000Y-88646000D03*
X195834000Y-90170000D03*
X184912000Y-81280000D03*
G04 #@! TO.N,CSB*
X188468000Y-85852000D03*
X191008000Y-88646000D03*
G04 #@! TO.N,PS*
X184912000Y-82804000D03*
X196596000Y-88646000D03*
G04 #@! TD*
D14*
G04 #@! TO.N,VDD*
X200660000Y-90170000D02*
X201930000Y-91440000D01*
X199644000Y-90170000D02*
X200660000Y-90170000D01*
X199136000Y-90170000D02*
X197104000Y-92202000D01*
X199644000Y-90170000D02*
X199136000Y-90170000D01*
D15*
G04 #@! TO.N,SDA*
X191008000Y-89916000D02*
X191262000Y-90170000D01*
X187960000Y-89916000D02*
X191008000Y-89916000D01*
X186940000Y-84186000D02*
X186690000Y-84186000D01*
X187765001Y-83360999D02*
X186940000Y-84186000D01*
X184186999Y-86142999D02*
X184186999Y-80735001D01*
X187765001Y-79869999D02*
X187765001Y-83360999D01*
X187960000Y-89916000D02*
X184186999Y-86142999D01*
X184186999Y-80735001D02*
X185117001Y-79804999D01*
X185117001Y-79804999D02*
X187700001Y-79804999D01*
X187700001Y-79804999D02*
X187765001Y-79869999D01*
G04 #@! TO.N,SCL*
X189118000Y-80630000D02*
X188976000Y-80772000D01*
X190500000Y-80630000D02*
X189118000Y-80630000D01*
G04 #@! TO.N,Earth*
X185562000Y-80630000D02*
X184912000Y-81280000D01*
X186690000Y-80630000D02*
X185562000Y-80630000D01*
G04 #@! TO.N,SPI_SCK*
X193944000Y-81930000D02*
X195580000Y-83566000D01*
X190500000Y-81930000D02*
X193944000Y-81930000D01*
G04 #@! TO.N,SPI_MOSI*
X197270001Y-84415999D02*
X198120000Y-83566000D01*
X196944999Y-84741001D02*
X197270001Y-84415999D01*
X195015999Y-84741001D02*
X196944999Y-84741001D01*
X193635997Y-83360999D02*
X195015999Y-84741001D01*
X189489999Y-83360999D02*
X193635997Y-83360999D01*
X187364998Y-85486000D02*
X189489999Y-83360999D01*
X186690000Y-85486000D02*
X187364998Y-85486000D01*
G04 #@! TO.N,SPI_CS*
X193660000Y-84186000D02*
X195580000Y-86106000D01*
X190500000Y-84186000D02*
X193660000Y-84186000D01*
G04 #@! TO.N,CSB*
X191008000Y-85994000D02*
X190500000Y-85486000D01*
X191008000Y-88646000D02*
X191008000Y-85994000D01*
X190134000Y-85852000D02*
X190500000Y-85486000D01*
X188468000Y-85852000D02*
X190134000Y-85852000D01*
X188468000Y-85852000D02*
X188468000Y-85286315D01*
G04 #@! TO.N,PS*
X186440000Y-81930000D02*
X186690000Y-81930000D01*
X185614999Y-82755001D02*
X186440000Y-81930000D01*
X188739999Y-89371001D02*
X185614999Y-86246001D01*
X195870999Y-89371001D02*
X188739999Y-89371001D01*
X185614999Y-86246001D02*
X185614999Y-82755001D01*
X196596000Y-88646000D02*
X195870999Y-89371001D01*
X185566000Y-82804000D02*
X185614999Y-82755001D01*
X184912000Y-82804000D02*
X185566000Y-82804000D01*
G04 #@! TD*
D16*
G04 #@! TO.N,Earth*
G36*
X183994824Y-79852375D02*
X183856309Y-79795000D01*
X183165750Y-79795000D01*
X183007000Y-79953750D01*
X183007000Y-81153000D01*
X183027000Y-81153000D01*
X183027000Y-81407000D01*
X183007000Y-81407000D01*
X183007000Y-81427000D01*
X182753000Y-81427000D01*
X182753000Y-81407000D01*
X181553750Y-81407000D01*
X181395000Y-81565750D01*
X181395000Y-82256310D01*
X181491673Y-82489699D01*
X181670302Y-82668327D01*
X181831033Y-82734904D01*
X181809375Y-82749375D01*
X181481161Y-83240582D01*
X181365908Y-83820000D01*
X181481161Y-84399418D01*
X181809375Y-84890625D01*
X182107761Y-85090000D01*
X181809375Y-85289375D01*
X181481161Y-85780582D01*
X181365908Y-86360000D01*
X181481161Y-86939418D01*
X181809375Y-87430625D01*
X182107761Y-87630000D01*
X181809375Y-87829375D01*
X181481161Y-88320582D01*
X181365908Y-88900000D01*
X181481161Y-89479418D01*
X181809375Y-89970625D01*
X182107761Y-90170000D01*
X181809375Y-90369375D01*
X181481161Y-90860582D01*
X181365908Y-91440000D01*
X181481161Y-92019418D01*
X181809375Y-92510625D01*
X182300582Y-92838839D01*
X182733744Y-92925000D01*
X183026256Y-92925000D01*
X183459418Y-92838839D01*
X183950625Y-92510625D01*
X184278839Y-92019418D01*
X184283472Y-91996126D01*
X196069000Y-91996126D01*
X196069000Y-92407874D01*
X196226569Y-92788280D01*
X196517720Y-93079431D01*
X196898126Y-93237000D01*
X197309874Y-93237000D01*
X197690280Y-93079431D01*
X197981431Y-92788280D01*
X198131431Y-92426147D01*
X199502579Y-91055000D01*
X200293422Y-91055000D01*
X200459462Y-91221040D01*
X200415908Y-91440000D01*
X200531161Y-92019418D01*
X200859375Y-92510625D01*
X201350582Y-92838839D01*
X201783744Y-92925000D01*
X202076256Y-92925000D01*
X202509418Y-92838839D01*
X203000625Y-92510625D01*
X203328839Y-92019418D01*
X203444092Y-91440000D01*
X203328839Y-90860582D01*
X203000625Y-90369375D01*
X202702239Y-90170000D01*
X203000625Y-89970625D01*
X203328839Y-89479418D01*
X203444092Y-88900000D01*
X203328839Y-88320582D01*
X203000625Y-87829375D01*
X202702239Y-87630000D01*
X203000625Y-87430625D01*
X203328839Y-86939418D01*
X203444092Y-86360000D01*
X203328839Y-85780582D01*
X203000625Y-85289375D01*
X202702239Y-85090000D01*
X203000625Y-84890625D01*
X203328839Y-84399418D01*
X203444092Y-83820000D01*
X203328839Y-83240582D01*
X203000625Y-82749375D01*
X202978967Y-82734904D01*
X203139698Y-82668327D01*
X203318327Y-82489699D01*
X203415000Y-82256310D01*
X203415000Y-81565750D01*
X203256250Y-81407000D01*
X202057000Y-81407000D01*
X202057000Y-81427000D01*
X201803000Y-81427000D01*
X201803000Y-81407000D01*
X200603750Y-81407000D01*
X200445000Y-81565750D01*
X200445000Y-82256310D01*
X200541673Y-82489699D01*
X200720302Y-82668327D01*
X200881033Y-82734904D01*
X200859375Y-82749375D01*
X200531161Y-83240582D01*
X200415908Y-83820000D01*
X200531161Y-84399418D01*
X200859375Y-84890625D01*
X201157761Y-85090000D01*
X200859375Y-85289375D01*
X200531161Y-85780582D01*
X200415908Y-86360000D01*
X200531161Y-86939418D01*
X200859375Y-87430625D01*
X201157761Y-87630000D01*
X200859375Y-87829375D01*
X200531161Y-88320582D01*
X200415908Y-88900000D01*
X200492489Y-89285000D01*
X199223161Y-89285000D01*
X199136000Y-89267663D01*
X199048839Y-89285000D01*
X199048835Y-89285000D01*
X198790690Y-89336348D01*
X198571845Y-89482576D01*
X198571844Y-89482577D01*
X198497951Y-89531951D01*
X198448577Y-89605844D01*
X196879853Y-91174569D01*
X196517720Y-91324569D01*
X196226569Y-91615720D01*
X196069000Y-91996126D01*
X184283472Y-91996126D01*
X184394092Y-91440000D01*
X184278839Y-90860582D01*
X183950625Y-90369375D01*
X183652239Y-90170000D01*
X183950625Y-89970625D01*
X184278839Y-89479418D01*
X184394092Y-88900000D01*
X184278839Y-88320582D01*
X183950625Y-87829375D01*
X183652239Y-87630000D01*
X183950625Y-87430625D01*
X184130549Y-87161350D01*
X186925000Y-89955802D01*
X186925000Y-90121874D01*
X187082569Y-90502280D01*
X187373720Y-90793431D01*
X187754126Y-90951000D01*
X188165874Y-90951000D01*
X188546280Y-90793431D01*
X188663711Y-90676000D01*
X190351316Y-90676000D01*
X190384569Y-90756280D01*
X190675720Y-91047431D01*
X191056126Y-91205000D01*
X191467874Y-91205000D01*
X191848280Y-91047431D01*
X192139431Y-90756280D01*
X192297000Y-90375874D01*
X192297000Y-90131001D01*
X195796152Y-90131001D01*
X195870999Y-90145889D01*
X195945846Y-90131001D01*
X195945851Y-90131001D01*
X196167536Y-90086905D01*
X196418928Y-89918930D01*
X196461330Y-89855471D01*
X196635801Y-89681000D01*
X196801874Y-89681000D01*
X197182280Y-89523431D01*
X197473431Y-89232280D01*
X197631000Y-88851874D01*
X197631000Y-88440126D01*
X197473431Y-88059720D01*
X197182280Y-87768569D01*
X196801874Y-87611000D01*
X196390126Y-87611000D01*
X196009720Y-87768569D01*
X195718569Y-88059720D01*
X195561000Y-88440126D01*
X195561000Y-88606199D01*
X195556198Y-88611001D01*
X192043000Y-88611001D01*
X192043000Y-88440126D01*
X191885431Y-88059720D01*
X191768000Y-87942289D01*
X191768000Y-86353727D01*
X191848157Y-86233765D01*
X191897440Y-85986000D01*
X191897440Y-84986000D01*
X191889484Y-84946000D01*
X193345199Y-84946000D01*
X194138791Y-85739592D01*
X194065908Y-86106000D01*
X194181161Y-86685418D01*
X194509375Y-87176625D01*
X195000582Y-87504839D01*
X195433744Y-87591000D01*
X195726256Y-87591000D01*
X196159418Y-87504839D01*
X196650625Y-87176625D01*
X196851353Y-86876214D01*
X197238642Y-87301183D01*
X197763108Y-87547486D01*
X197993000Y-87426819D01*
X197993000Y-86233000D01*
X198247000Y-86233000D01*
X198247000Y-87426819D01*
X198476892Y-87547486D01*
X199001358Y-87301183D01*
X199391645Y-86872924D01*
X199561476Y-86462890D01*
X199440155Y-86233000D01*
X198247000Y-86233000D01*
X197993000Y-86233000D01*
X197973000Y-86233000D01*
X197973000Y-85979000D01*
X197993000Y-85979000D01*
X197993000Y-85959000D01*
X198247000Y-85959000D01*
X198247000Y-85979000D01*
X199440155Y-85979000D01*
X199561476Y-85749110D01*
X199391645Y-85339076D01*
X199001358Y-84910817D01*
X198871522Y-84849843D01*
X199190625Y-84636625D01*
X199518839Y-84145418D01*
X199634092Y-83566000D01*
X199518839Y-82986582D01*
X199190625Y-82495375D01*
X198892239Y-82296000D01*
X199190625Y-82096625D01*
X199518839Y-81605418D01*
X199634092Y-81026000D01*
X199518839Y-80446582D01*
X199423362Y-80303690D01*
X200445000Y-80303690D01*
X200445000Y-80994250D01*
X200603750Y-81153000D01*
X201803000Y-81153000D01*
X201803000Y-79953750D01*
X202057000Y-79953750D01*
X202057000Y-81153000D01*
X203256250Y-81153000D01*
X203415000Y-80994250D01*
X203415000Y-80303690D01*
X203318327Y-80070301D01*
X203139698Y-79891673D01*
X202906309Y-79795000D01*
X202215750Y-79795000D01*
X202057000Y-79953750D01*
X201803000Y-79953750D01*
X201644250Y-79795000D01*
X200953691Y-79795000D01*
X200720302Y-79891673D01*
X200541673Y-80070301D01*
X200445000Y-80303690D01*
X199423362Y-80303690D01*
X199190625Y-79955375D01*
X198699418Y-79627161D01*
X198266256Y-79541000D01*
X197973744Y-79541000D01*
X197540582Y-79627161D01*
X197049375Y-79955375D01*
X197037184Y-79973619D01*
X197028157Y-79928235D01*
X196887809Y-79718191D01*
X196677765Y-79577843D01*
X196430000Y-79528560D01*
X194730000Y-79528560D01*
X194482235Y-79577843D01*
X194272191Y-79718191D01*
X194131843Y-79928235D01*
X194082560Y-80176000D01*
X194082560Y-81182672D01*
X194018852Y-81170000D01*
X194018847Y-81170000D01*
X193944000Y-81155112D01*
X193869153Y-81170000D01*
X191889484Y-81170000D01*
X191897440Y-81130000D01*
X191897440Y-80130000D01*
X191848157Y-79882235D01*
X191707809Y-79672191D01*
X191497765Y-79531843D01*
X191250000Y-79482560D01*
X189750000Y-79482560D01*
X189502235Y-79531843D01*
X189292191Y-79672191D01*
X189234360Y-79758740D01*
X189181874Y-79737000D01*
X188770126Y-79737000D01*
X188532973Y-79835232D01*
X188525001Y-79795152D01*
X188525001Y-79795147D01*
X188480905Y-79573462D01*
X188398410Y-79450000D01*
X206300000Y-79450000D01*
X206300001Y-93270000D01*
X179780000Y-93270000D01*
X179780000Y-80303690D01*
X181395000Y-80303690D01*
X181395000Y-80994250D01*
X181553750Y-81153000D01*
X182753000Y-81153000D01*
X182753000Y-79953750D01*
X182594250Y-79795000D01*
X181903691Y-79795000D01*
X181670302Y-79891673D01*
X181491673Y-80070301D01*
X181395000Y-80303690D01*
X179780000Y-80303690D01*
X179780000Y-79450000D01*
X184397197Y-79450000D01*
X183994824Y-79852375D01*
X183994824Y-79852375D01*
G37*
X183994824Y-79852375D02*
X183856309Y-79795000D01*
X183165750Y-79795000D01*
X183007000Y-79953750D01*
X183007000Y-81153000D01*
X183027000Y-81153000D01*
X183027000Y-81407000D01*
X183007000Y-81407000D01*
X183007000Y-81427000D01*
X182753000Y-81427000D01*
X182753000Y-81407000D01*
X181553750Y-81407000D01*
X181395000Y-81565750D01*
X181395000Y-82256310D01*
X181491673Y-82489699D01*
X181670302Y-82668327D01*
X181831033Y-82734904D01*
X181809375Y-82749375D01*
X181481161Y-83240582D01*
X181365908Y-83820000D01*
X181481161Y-84399418D01*
X181809375Y-84890625D01*
X182107761Y-85090000D01*
X181809375Y-85289375D01*
X181481161Y-85780582D01*
X181365908Y-86360000D01*
X181481161Y-86939418D01*
X181809375Y-87430625D01*
X182107761Y-87630000D01*
X181809375Y-87829375D01*
X181481161Y-88320582D01*
X181365908Y-88900000D01*
X181481161Y-89479418D01*
X181809375Y-89970625D01*
X182107761Y-90170000D01*
X181809375Y-90369375D01*
X181481161Y-90860582D01*
X181365908Y-91440000D01*
X181481161Y-92019418D01*
X181809375Y-92510625D01*
X182300582Y-92838839D01*
X182733744Y-92925000D01*
X183026256Y-92925000D01*
X183459418Y-92838839D01*
X183950625Y-92510625D01*
X184278839Y-92019418D01*
X184283472Y-91996126D01*
X196069000Y-91996126D01*
X196069000Y-92407874D01*
X196226569Y-92788280D01*
X196517720Y-93079431D01*
X196898126Y-93237000D01*
X197309874Y-93237000D01*
X197690280Y-93079431D01*
X197981431Y-92788280D01*
X198131431Y-92426147D01*
X199502579Y-91055000D01*
X200293422Y-91055000D01*
X200459462Y-91221040D01*
X200415908Y-91440000D01*
X200531161Y-92019418D01*
X200859375Y-92510625D01*
X201350582Y-92838839D01*
X201783744Y-92925000D01*
X202076256Y-92925000D01*
X202509418Y-92838839D01*
X203000625Y-92510625D01*
X203328839Y-92019418D01*
X203444092Y-91440000D01*
X203328839Y-90860582D01*
X203000625Y-90369375D01*
X202702239Y-90170000D01*
X203000625Y-89970625D01*
X203328839Y-89479418D01*
X203444092Y-88900000D01*
X203328839Y-88320582D01*
X203000625Y-87829375D01*
X202702239Y-87630000D01*
X203000625Y-87430625D01*
X203328839Y-86939418D01*
X203444092Y-86360000D01*
X203328839Y-85780582D01*
X203000625Y-85289375D01*
X202702239Y-85090000D01*
X203000625Y-84890625D01*
X203328839Y-84399418D01*
X203444092Y-83820000D01*
X203328839Y-83240582D01*
X203000625Y-82749375D01*
X202978967Y-82734904D01*
X203139698Y-82668327D01*
X203318327Y-82489699D01*
X203415000Y-82256310D01*
X203415000Y-81565750D01*
X203256250Y-81407000D01*
X202057000Y-81407000D01*
X202057000Y-81427000D01*
X201803000Y-81427000D01*
X201803000Y-81407000D01*
X200603750Y-81407000D01*
X200445000Y-81565750D01*
X200445000Y-82256310D01*
X200541673Y-82489699D01*
X200720302Y-82668327D01*
X200881033Y-82734904D01*
X200859375Y-82749375D01*
X200531161Y-83240582D01*
X200415908Y-83820000D01*
X200531161Y-84399418D01*
X200859375Y-84890625D01*
X201157761Y-85090000D01*
X200859375Y-85289375D01*
X200531161Y-85780582D01*
X200415908Y-86360000D01*
X200531161Y-86939418D01*
X200859375Y-87430625D01*
X201157761Y-87630000D01*
X200859375Y-87829375D01*
X200531161Y-88320582D01*
X200415908Y-88900000D01*
X200492489Y-89285000D01*
X199223161Y-89285000D01*
X199136000Y-89267663D01*
X199048839Y-89285000D01*
X199048835Y-89285000D01*
X198790690Y-89336348D01*
X198571845Y-89482576D01*
X198571844Y-89482577D01*
X198497951Y-89531951D01*
X198448577Y-89605844D01*
X196879853Y-91174569D01*
X196517720Y-91324569D01*
X196226569Y-91615720D01*
X196069000Y-91996126D01*
X184283472Y-91996126D01*
X184394092Y-91440000D01*
X184278839Y-90860582D01*
X183950625Y-90369375D01*
X183652239Y-90170000D01*
X183950625Y-89970625D01*
X184278839Y-89479418D01*
X184394092Y-88900000D01*
X184278839Y-88320582D01*
X183950625Y-87829375D01*
X183652239Y-87630000D01*
X183950625Y-87430625D01*
X184130549Y-87161350D01*
X186925000Y-89955802D01*
X186925000Y-90121874D01*
X187082569Y-90502280D01*
X187373720Y-90793431D01*
X187754126Y-90951000D01*
X188165874Y-90951000D01*
X188546280Y-90793431D01*
X188663711Y-90676000D01*
X190351316Y-90676000D01*
X190384569Y-90756280D01*
X190675720Y-91047431D01*
X191056126Y-91205000D01*
X191467874Y-91205000D01*
X191848280Y-91047431D01*
X192139431Y-90756280D01*
X192297000Y-90375874D01*
X192297000Y-90131001D01*
X195796152Y-90131001D01*
X195870999Y-90145889D01*
X195945846Y-90131001D01*
X195945851Y-90131001D01*
X196167536Y-90086905D01*
X196418928Y-89918930D01*
X196461330Y-89855471D01*
X196635801Y-89681000D01*
X196801874Y-89681000D01*
X197182280Y-89523431D01*
X197473431Y-89232280D01*
X197631000Y-88851874D01*
X197631000Y-88440126D01*
X197473431Y-88059720D01*
X197182280Y-87768569D01*
X196801874Y-87611000D01*
X196390126Y-87611000D01*
X196009720Y-87768569D01*
X195718569Y-88059720D01*
X195561000Y-88440126D01*
X195561000Y-88606199D01*
X195556198Y-88611001D01*
X192043000Y-88611001D01*
X192043000Y-88440126D01*
X191885431Y-88059720D01*
X191768000Y-87942289D01*
X191768000Y-86353727D01*
X191848157Y-86233765D01*
X191897440Y-85986000D01*
X191897440Y-84986000D01*
X191889484Y-84946000D01*
X193345199Y-84946000D01*
X194138791Y-85739592D01*
X194065908Y-86106000D01*
X194181161Y-86685418D01*
X194509375Y-87176625D01*
X195000582Y-87504839D01*
X195433744Y-87591000D01*
X195726256Y-87591000D01*
X196159418Y-87504839D01*
X196650625Y-87176625D01*
X196851353Y-86876214D01*
X197238642Y-87301183D01*
X197763108Y-87547486D01*
X197993000Y-87426819D01*
X197993000Y-86233000D01*
X198247000Y-86233000D01*
X198247000Y-87426819D01*
X198476892Y-87547486D01*
X199001358Y-87301183D01*
X199391645Y-86872924D01*
X199561476Y-86462890D01*
X199440155Y-86233000D01*
X198247000Y-86233000D01*
X197993000Y-86233000D01*
X197973000Y-86233000D01*
X197973000Y-85979000D01*
X197993000Y-85979000D01*
X197993000Y-85959000D01*
X198247000Y-85959000D01*
X198247000Y-85979000D01*
X199440155Y-85979000D01*
X199561476Y-85749110D01*
X199391645Y-85339076D01*
X199001358Y-84910817D01*
X198871522Y-84849843D01*
X199190625Y-84636625D01*
X199518839Y-84145418D01*
X199634092Y-83566000D01*
X199518839Y-82986582D01*
X199190625Y-82495375D01*
X198892239Y-82296000D01*
X199190625Y-82096625D01*
X199518839Y-81605418D01*
X199634092Y-81026000D01*
X199518839Y-80446582D01*
X199423362Y-80303690D01*
X200445000Y-80303690D01*
X200445000Y-80994250D01*
X200603750Y-81153000D01*
X201803000Y-81153000D01*
X201803000Y-79953750D01*
X202057000Y-79953750D01*
X202057000Y-81153000D01*
X203256250Y-81153000D01*
X203415000Y-80994250D01*
X203415000Y-80303690D01*
X203318327Y-80070301D01*
X203139698Y-79891673D01*
X202906309Y-79795000D01*
X202215750Y-79795000D01*
X202057000Y-79953750D01*
X201803000Y-79953750D01*
X201644250Y-79795000D01*
X200953691Y-79795000D01*
X200720302Y-79891673D01*
X200541673Y-80070301D01*
X200445000Y-80303690D01*
X199423362Y-80303690D01*
X199190625Y-79955375D01*
X198699418Y-79627161D01*
X198266256Y-79541000D01*
X197973744Y-79541000D01*
X197540582Y-79627161D01*
X197049375Y-79955375D01*
X197037184Y-79973619D01*
X197028157Y-79928235D01*
X196887809Y-79718191D01*
X196677765Y-79577843D01*
X196430000Y-79528560D01*
X194730000Y-79528560D01*
X194482235Y-79577843D01*
X194272191Y-79718191D01*
X194131843Y-79928235D01*
X194082560Y-80176000D01*
X194082560Y-81182672D01*
X194018852Y-81170000D01*
X194018847Y-81170000D01*
X193944000Y-81155112D01*
X193869153Y-81170000D01*
X191889484Y-81170000D01*
X191897440Y-81130000D01*
X191897440Y-80130000D01*
X191848157Y-79882235D01*
X191707809Y-79672191D01*
X191497765Y-79531843D01*
X191250000Y-79482560D01*
X189750000Y-79482560D01*
X189502235Y-79531843D01*
X189292191Y-79672191D01*
X189234360Y-79758740D01*
X189181874Y-79737000D01*
X188770126Y-79737000D01*
X188532973Y-79835232D01*
X188525001Y-79795152D01*
X188525001Y-79795147D01*
X188480905Y-79573462D01*
X188398410Y-79450000D01*
X206300000Y-79450000D01*
X206300001Y-93270000D01*
X179780000Y-93270000D01*
X179780000Y-80303690D01*
X181395000Y-80303690D01*
X181395000Y-80994250D01*
X181553750Y-81153000D01*
X182753000Y-81153000D01*
X182753000Y-79953750D01*
X182594250Y-79795000D01*
X181903691Y-79795000D01*
X181670302Y-79891673D01*
X181491673Y-80070301D01*
X181395000Y-80303690D01*
X179780000Y-80303690D01*
X179780000Y-79450000D01*
X184397197Y-79450000D01*
X183994824Y-79852375D01*
G36*
X185305000Y-80757002D02*
X185463748Y-80757002D01*
X185305000Y-80915750D01*
X185305000Y-81256309D01*
X185319936Y-81292368D01*
X185292560Y-81430000D01*
X185292560Y-81841357D01*
X185117874Y-81769000D01*
X184946999Y-81769000D01*
X184946999Y-81049803D01*
X185305000Y-80691802D01*
X185305000Y-80757002D01*
X185305000Y-80757002D01*
G37*
X185305000Y-80757002D02*
X185463748Y-80757002D01*
X185305000Y-80915750D01*
X185305000Y-81256309D01*
X185319936Y-81292368D01*
X185292560Y-81430000D01*
X185292560Y-81841357D01*
X185117874Y-81769000D01*
X184946999Y-81769000D01*
X184946999Y-81049803D01*
X185305000Y-80691802D01*
X185305000Y-80757002D01*
G36*
X186837000Y-80757000D02*
X186817000Y-80757000D01*
X186817000Y-80777000D01*
X186563000Y-80777000D01*
X186563000Y-80757000D01*
X186543000Y-80757000D01*
X186543000Y-80564999D01*
X186837000Y-80564999D01*
X186837000Y-80757000D01*
X186837000Y-80757000D01*
G37*
X186837000Y-80757000D02*
X186817000Y-80757000D01*
X186817000Y-80777000D01*
X186563000Y-80777000D01*
X186563000Y-80757000D01*
X186543000Y-80757000D01*
X186543000Y-80564999D01*
X186837000Y-80564999D01*
X186837000Y-80757000D01*
G04 #@! TD*
M02*
